<?xml version="1.0" encoding="UTF-8" standalone="no"?>
<!-- Created with Inkscape (http://www.inkscape.org/) -->

<svg
   width="210mm"
   height="297mm"
   viewBox="0 0 210 297"
   version="1.1"
   id="svg5"
   inkscape:version="1.1.2 (b8e25be833, 2022-02-05)"
   sodipodi:docname="dibujo.svg"
   xmlns:inkscape="http://www.inkscape.org/namespaces/inkscape"
   xmlns:sodipodi="http://sodipodi.sourceforge.net/DTD/sodipodi-0.dtd"
   xmlns="http://www.w3.org/2000/svg"
   xmlns:svg="http://www.w3.org/2000/svg">
  <sodipodi:namedview
     id="namedview7"
     pagecolor="#ffffff"
     bordercolor="#666666"
     borderopacity="1.0"
     inkscape:pageshadow="2"
     inkscape:pageopacity="0.0"
     inkscape:pagecheckerboard="0"
     inkscape:document-units="mm"
     showgrid="false"
     inkscape:zoom="6.7333333"
     inkscape:cx="61.559406"
     inkscape:cy="56.212871"
     inkscape:window-width="1920"
     inkscape:window-height="1001"
     inkscape:window-x="-9"
     inkscape:window-y="-9"
     inkscape:window-maximized="1"
     inkscape:current-layer="text1624" />
  <defs
     id="defs2" />
  <g
     inkscape:label="Capa 1"
     inkscape:groupmode="layer"
     id="layer1">
    <g
       aria-label="S"
       id="text1624"
       style="font-size:22.3901px;letter-spacing:0px;stroke-width:0.559754">
      <path
         d="m 20.761759,16.55284 c -6.84995,-4.275511 -5.546453,-9.426231 -0.806044,-9.6277435 2.937476,-0.053559 4.993836,1.1262282 4.701933,1.8801452 -0.47429,1.2249803 -0.867498,4.7296003 -1.419076,2.2913783 -1.115241,-4.9298674 -7.068131,-2.4075624 -6.056933,-0.431927 3.009414,6.578389 7.113189,3.650124 7.639556,8.672359 0.461107,3.603107 -5.007283,5.307025 -8.000094,3.462628 -1.201675,-1.080428 -1.348032,-1.521651 -1.388186,-2.731593 0.05971,-0.388094 0.119414,-0.761263 0.179121,-1.119505 0.05971,-0.358241 0.119414,-0.664239 0.179121,-0.917994 0,0 0.663697,-0.920974 0.660731,-0.726949 -1.06889,9.131377 10.363025,2.675963 4.309871,-0.750797 z"
         style="-inkscape-font-specification:'PT Serif, Normal'"
         id="path7627"
         sodipodi:nodetypes="ccssccccscccc" />
    </g>
  </g>
</svg>
